<?xml version="1.0" standalone="no"?><!DOCTYPE svg PUBLIC "-//W3C//DTD SVG 1.1//EN" "http://www.w3.org/Graphics/SVG/1.1/DTD/svg11.dtd"><svg t="1730353600162" class="icon" viewBox="0 0 1043 1024" version="1.1" xmlns="http://www.w3.org/2000/svg" p-id="5885" xmlns:xlink="http://www.w3.org/1999/xlink" width="65.1875" height="64"><path d="M924.066191 784.196136a117.166745 117.166745 0 0 0-63.560921 18.772468L723.068051 663.673101A250.147873 250.147873 0 0 1 682.640878 705.712051l137.911271 139.750593a120.712656 120.712656 0 0 0 20.441131 144.206684 117.925229 117.925229 0 0 0 143.239618 17.824363c46.248534-27.381256 68.585874-82.655744 54.516004-134.877336-14.06987-52.221592-61.057925-88.458143-114.682711-88.420219z m0 181.372378a60.83038 60.83038 0 0 1-56.222593-37.924178 61.835371 61.835371 0 0 1 13.178651-66.936172 60.432176 60.432176 0 0 1 66.310424-13.292424 61.437167 61.437167 0 0 1 37.544936 56.753531c-0.037924 33.885252-27.229559 61.342357-60.811418 61.399243zM360.285372 318.980254l-137.607877-143.561972c25.978061-55.274488 8.267471-122.02104-41.337353-155.621862C131.792205-13.804401 65.879985-3.735531 27.690338 43.252524c-38.189646 47.02598-36.691641 116.237603 3.507987 161.405298 40.199628 45.167695 106.453165 52.145744 154.541022 16.25051L319.289337 360.279683A246.886394 246.886394 0 0 1 360.285372 318.980254zM117.665449 184.501122c-33.05092 0-59.863314-27.836346-59.863314-62.195651 0-34.359305 26.812393-62.195651 59.863314-62.19565S177.490838 87.927205 177.490838 122.286509C177.490838 156.60789 150.754293 184.406312 117.760259 184.48216h-0.075848zM320.50291 663.673101l-142.405285 138.688716c-54.060915-27.836346-121.035012-12.211585-156.1528 36.445134C-13.172963 887.425746-5.417468 953.849943 40.015696 993.613443c45.433164 39.801424 114.322432 40.503021 160.60889 1.649701 46.267496-38.872282 55.483071-105.087895 21.42716-154.446211l138.233626-134.630829A247.000166 247.000166 0 0 1 320.50291 663.673101zM121.476828 966.270111c-25.086843 0-47.689653-14.657694-57.303431-37.12777a58.839361 58.839361 0 0 1 13.444121-65.55194 63.390262 63.390262 0 0 1 67.561921-13.045917c23.171672 9.329348 38.284457 31.268484 38.265495 55.596844-0.037924 33.183655-27.77946 60.090859-62.00603 60.109821h0.037924zM707.405366 341.317595l136.394303-133.246597c46.741548 38.265495 115.47912 36.672679 160.286535-3.716569 44.826377-40.389249 51.728578-106.94618 16.098814-155.223657C984.517329 0.853294 917.543232-14.06987 863.880521 14.354301c-53.662711 28.405209-77.175701 91.24557-54.857322 146.576945L663.67879 302.919365A249.389389 249.389389 0 0 1 707.405366 341.317595zM921.146029 58.517005c34.036949 0 61.626788 26.850317 61.626788 59.958125 0 33.126769-27.589839 59.958124-61.626788 59.958124s-61.626788-26.831355-61.626788-59.958124c0.018962-33.088845 27.608801-59.9202 61.626788-59.958125z" fill="#666666" p-id="5886"></path><path d="M706.627921 661.776892a242.847469 242.847469 0 0 0-10.049907-311.964282 250.39438 250.39438 0 0 0-43.612804-38.986054c-107.059952-75.014023-254.622926-55.065905-337.392443 45.603823-7.015973 8.53294-13.444121 17.52097-19.265482 26.888242a28.841337 28.841337 0 0 0 9.70859 39.915197 29.580858 29.580858 0 0 0 40.389248-9.594817c45.167695-73.117814 134.554981-106.889293 217.552043-82.219616 82.997062 24.650715 138.707678 101.579909 135.616858 187.2127-3.109783 85.61383-64.243556 158.390326-148.814472 177.12487-84.570915 18.734544-171.284546-21.275463-211.048046-97.408249a29.523972 29.523972 0 0 0-39.40322-12.097813 28.860299 28.860299 0 0 0-12.742523 38.796434c5.404195 10.315376 11.52895 20.232549 18.336339 29.713592 45.75552 63.807428 119.461158 102.300468 198.570992 103.684701 79.109834 1.384232 154.16178-34.511001 202.154827-96.668728z" fill="#4C88FF" p-id="5887"></path><path d="M341.323284 483.533259a28.443133 28.443133 0 0 0-28.443133-28.443133h-0.189621A28.443133 28.443133 0 1 0 341.323284 483.533259z" fill="#4C88FF" p-id="5888"></path></svg>